<?xml version="1.0" encoding="utf-8"?>
<!-- Generator: Adobe Illustrator 19.0.0, SVG Export Plug-In . SVG Version: 6.00 Build 0)  -->
<svg version="1.1" id="Layer_1" xmlns="http://www.w3.org/2000/svg" xmlns:xlink="http://www.w3.org/1999/xlink" x="0px" y="0px"
	 viewBox="0 0 51.8 51.5" style="enable-background:new 0 0 51.8 51.5;" xml:space="preserve">
<style type="text/css">
	.st0{fill:none;stroke:#767C7C;stroke-width:1.5;stroke-linecap:round;stroke-linejoin:round;stroke-miterlimit:10;}
	.st1{fill:#C4CCCE;}
</style>
<g>
	<circle class="st0" cx="24.9" cy="26.6" r="20.2"/>
	<circle class="st0" cx="24.9" cy="26.6" r="13.4"/>
	<path class="st1" d="M32,26.6c0,3.9-3.2,7.1-7.1,7.1s-7.1-3.2-7.1-7.1s3.2-7.1,7.1-7.1S32,22.7,32,26.6"/>
	<circle class="st0" cx="24.9" cy="26.6" r="7.1"/>
	<line class="st0" x1="24.8" y1="2.6" x2="24.8" y2="9.6"/>
	<line class="st0" x1="24.8" y1="43.8" x2="24.8" y2="50.8"/>
	<line class="st0" x1="48.9" y1="26.7" x2="41.9" y2="26.7"/>
	<line class="st0" x1="7.7" y1="26.7" x2="0.8" y2="26.7"/>
	<line class="st0" x1="24.9" y1="26.6" x2="41.3" y2="10.2"/>
	<polygon class="st1" points="46.2,5.3 50.8,5.8 45.7,10.9 41.1,10.3 40.6,5.8 45.7,0.8 	"/>
	<polygon class="st0" points="46.2,5.3 50.8,5.8 45.7,10.9 41.1,10.3 40.6,5.8 45.7,0.8 	"/>
</g>
</svg>
