<?xml version="1.0" encoding="iso-8859-1"?>
<!-- Uploaded to: SVG Repo, www.svgrepo.com, Generator: SVG Repo Mixer Tools -->
<svg fill="#000000" height="800px" width="800px" version="1.1" id="Layer_1" xmlns="http://www.w3.org/2000/svg" xmlns:xlink="http://www.w3.org/1999/xlink" 
	 viewBox="0 0 512 512" xml:space="preserve">
<g>
	<g>
		<path d="M447.956,126.838C442.699,56.017,383.397,0,311.255,0c-75.588,0-137.082,61.494-137.082,137.081v185.983
			c-1.916-0.313-3.88-0.484-5.884-0.484H88.247c-20.017,0-36.301,16.284-36.301,36.301V512h122.226h30.417h22.857h30.455H380.09
			V358.881c0-20.017-16.284-36.301-36.3-36.301h-80.043c-1.99,0-3.942,0.167-5.846,0.478V137.081
			c0-29.419,23.934-53.353,53.354-53.353c26.23,0,48.082,19.03,52.517,44.005c-6.611,5.123-10.878,13.133-10.878,22.124v32.102
			c0,15.432,12.554,27.986,27.986,27.986h51.188c15.432,0,27.986-12.554,27.986-27.986v-32.102
			C460.053,140.324,455.257,131.893,447.956,126.838z M174.173,481.583H82.364v-69.767h91.809V481.583z M174.173,381.399H82.364
			v-22.518c0-3.245,2.639-5.884,5.884-5.884h80.042c3.245,0,5.884,2.639,5.884,5.884V381.399z M349.674,481.583h-91.772v-69.767
			h91.772V481.583z M257.901,358.233c0.324-2.94,2.822-5.236,5.846-5.236h80.043c3.243,0,5.883,2.639,5.883,5.884v22.518h-91.772
			V358.233z M311.255,53.311c-46.192,0-83.771,37.578-83.771,83.77v220.318c-0.02,0.492-0.038,0.985-0.038,1.482v122.702H204.59
			V358.881v-221.8c0-58.815,47.85-106.664,106.665-106.664c53.653,0,98.181,39.818,105.584,91.455h-23.196
			C386.467,82.918,352.253,53.311,311.255,53.311z M429.635,179.528h-46.324V152.29h46.324V179.528z"/>
	</g>
</g>
<g>
	<g>
		<path d="M416.907,233.438l-10.435-9.841l-10.435,9.841c-2.874,2.711-28.08,27.294-28.08,55.404
			c0,21.237,17.278,38.515,38.515,38.515c21.238,0,38.516-17.278,38.516-38.515C444.989,260.732,419.781,236.149,416.907,233.438z
			 M406.473,296.94c-4.465,0-8.098-3.633-8.098-8.098c0-6.699,3.802-14.293,8.103-20.651c4.367,6.506,8.093,14.132,8.093,20.651
			C414.572,293.307,410.938,296.94,406.473,296.94z"/>
	</g>
</g>
</svg>